<svg width="2940" height="2940" xmlns="http://www.w3.org/2000/svg" xmlns:xlink="http://www.w3.org/1999/xlink">
 <defs>
  <path id="D" d="m-31.5,0l33,0a30,30 0 0 0 30,-30l0,-10a30,30 0 0 0 -30,-30l-33,0l0,70zm13,-13l19,0a19,19 0 0 0 19,-19l0,-6a19,19 0 0 0 -19,-19l-19,0l0,44z" fill-rule="evenodd"/>
  <path id="E" d="m-31.5,0l63,0l0,-13l-51,0l0,-18l40,0l0,-12l-40,0l0,-14l48,0l0,-13l-60,0l0,70z"/>
  <path id="e" d="m-26.25,0l52.5,0l0,-12l-40.5,0l0,-16l33,0l0,-12l-33,0l0,-11l39.25,0l0,-12l-51.25,0l0,63z"/>
  <g id="G">
   <clipPath id="gcut">
    <path d="m-31.5,0l0,-70l63,0l0,70l-63,0zm31.5,-47l0,12l31.5,0l0,-12l-31.5,0z" id="svg_1"/>
   </clipPath>
   <use xlink:href="#O" clip-path="url(#gcut)" id="svg_2"/>
   <rect x="5" y="-35" width="26.5" height="10" id="svg_3"/>
   <rect x="21.5" y="-35" width="10" height="35" id="svg_4"/>
  </g>
  <path id="M" d="m-31.5,0l12,0l0,-48l14,48l11,0l14,-48l0,48l12,0l0,-70l-17.5,0l-14,48l-14,-48l-17.5,0l0,70z"/>
  <path id="O" d="m0,0a31.5,35 0 0 0 0,-70a31.5,35 0 0 0 0,70m0,-13a18.5,22 0 0 0 0,-44a18.5,22 0 0 0 0,44" fill-rule="evenodd"/>
  <path id="P" d="m-31.5,0l13,0l0,-26l28,0a22,22 0 0 0 0,-44l-40,0l-1,70zm13,-39l27,0a9,9 0 0 0 0,-18l-27,0l0,18z" fill-rule="evenodd"/>
  <g id="R">
   <use xlink:href="#P" id="svg_5"/>
   <path d="m28,0c0,-10 0,-32 -15,-32l-19,0c22,0 22,22 22,32" id="svg_6"/>
  </g>
  <path id="S" d="m-15.75,-22c0,7 6.75,10.5 16.75,10.5c10,0 14.74,-3.25 14.75,-7.75c0,-14.25 -46.75,-5.25 -46.5,-30.25c0.25,-21.5 24.75,-20.5 33.75,-20.5c9,0 26,4 25.75,21.25l-15.25,0c0,-7.5 -7,-10.25 -15,-10.25c-7.75,0 -13.25,1.25 -13.25,8.5c-0.25,11.75 46.25,4 46.25,28.75c0,18.25 -18,21.75 -31.5,21.75c-11.5,0 -31.55,-4.5 -31.5,-22l15.75,0z"/>
  <g id="star" fill="#fff">
   <g id="c">
    <path id="t" d="m0,-1l0,1l0.5,0" transform="rotate(18 0,-1) "/>
    <use xlink:href="#t" transform="scale(-1,1) " id="svg_7"/>
   </g>
   <use xlink:href="#c" transform="rotate(72 0,0) " id="svg_8"/>
   <use xlink:href="#c" transform="rotate(-72 0,0) " id="svg_9"/>
   <use xlink:href="#c" transform="rotate(144 0,0) " id="svg_10"/>
   <use xlink:href="#c" transform="rotate(-144 0,0) " id="svg_11"/>
  </g>
  <use id="star1" xlink:href="#star" transform="scale(31.5) "/>
  <use id="star2" xlink:href="#star" transform="scale(26.25) "/>
  <use id="star3" xlink:href="#star" transform="scale(21) "/>
  <use id="star4" xlink:href="#star" transform="scale(15) "/>
  <use id="star5" xlink:href="#star" transform="scale(10.5) "/>
 </defs>
 <clipPath id="band">
  <circle r="735" id="svg_12"/>
 </clipPath>
 <g>
  <title>background</title>
  <rect x="-1" y="-1" width="2942" height="2942" id="canvas_background" fill="none"/>
 </g>
 <g>
  <title>Layer 1</title>
  <rect x="0" y="0" width="4200" height="2940" fill="#009b3a" id="svg_13"/>
  <path d="m-272.99998,1470.00001l1743,1113l1743,-1113l-1743,-1113l-1743,1113z" fill="#fedf00" id="svg_14"/>
  <circle r="735" fill="#002776" id="svg_15" cy="1470.000016" cx="1470"/>
 </g>
</svg>