<svg width="4200" height="2940" xmlns="http://www.w3.org/2000/svg" xmlns:xlink="http://www.w3.org/1999/xlink">
 <defs>
  <path fill-rule="evenodd" d="m-31.5,0l33,0a30,30 0 0 0 30,-30l0,-10a30,30 0 0 0 -30,-30l-33,0l0,70zm13,-13l19,0a19,19 0 0 0 19,-19l0,-6a19,19 0 0 0 -19,-19l-19,0l0,44z" id="D"/>
  <path d="m-31.5,0l63,0l0,-13l-51,0l0,-18l40,0l0,-12l-40,0l0,-14l48,0l0,-13l-60,0l0,70z" id="E"/>
  <path d="m-26.25,0l52.5,0l0,-12l-40.5,0l0,-16l33,0l0,-12l-33,0l0,-11l39.25,0l0,-12l-51.25,0l0,63z" id="e"/>
  <g id="G">
   <clipPath id="gcut">
    <path id="svg_1" d="m-31.5,0l0,-70l63,0l0,70l-63,0zm31.5,-47l0,12l31.5,0l0,-12l-31.5,0z"/>
   </clipPath>
   <use id="svg_2" clip-path="url(#gcut)" xlink:href="#O"/>
   <rect id="svg_3" height="10" width="26.5" y="-35" x="5"/>
   <rect id="svg_4" height="35" width="10" y="-35" x="21.5"/>
  </g>
  <path d="m-31.5,0l12,0l0,-48l14,48l11,0l14,-48l0,48l12,0l0,-70l-17.5,0l-14,48l-14,-48l-17.5,0l0,70z" id="M"/>
  <path fill-rule="evenodd" d="m0,0a31.5,35 0 0 0 0,-70a31.5,35 0 0 0 0,70m0,-13a18.5,22 0 0 0 0,-44a18.5,22 0 0 0 0,44" id="O"/>
  <path fill-rule="evenodd" d="m-31.5,0l13,0l0,-26l28,0a22,22 0 0 0 0,-44l-40,0l-1,70zm13,-39l27,0a9,9 0 0 0 0,-18l-27,0l0,18z" id="P"/>
  <g id="R">
   <use id="svg_5" xlink:href="#P"/>
   <path id="svg_6" d="m28,0c0,-10 0,-32 -15,-32l-19,0c22,0 22,22 22,32"/>
  </g>
  <path d="m-15.75,-22c0,7 6.75,10.5 16.75,10.5c10,0 14.74,-3.25 14.75,-7.75c0,-14.25 -46.75,-5.25 -46.5,-30.25c0.25,-21.5 24.75,-20.5 33.75,-20.5c9,0 26,4 25.75,21.25l-15.25,0c0,-7.5 -7,-10.25 -15,-10.25c-7.75,0 -13.25,1.25 -13.25,8.5c-0.25,11.75 46.25,4 46.25,28.75c0,18.25 -18,21.75 -31.5,21.75c-11.5,0 -31.55,-4.5 -31.5,-22l15.75,0z" id="S"/>
  <g fill="#fff" id="star">
   <g id="c">
    <path transform="rotate(18 0,-1) " d="m0,-1l0,1l0.5,0" id="t"/>
    <use id="svg_7" transform="scale(-1,1) " xlink:href="#t"/>
   </g>
   <use id="svg_8" transform="rotate(72 0,0) " xlink:href="#c"/>
   <use id="svg_9" transform="rotate(-72 0,0) " xlink:href="#c"/>
   <use id="svg_10" transform="rotate(144 0,0) " xlink:href="#c"/>
   <use id="svg_11" transform="rotate(-144 0,0) " xlink:href="#c"/>
  </g>
  <use transform="scale(31.5) " xlink:href="#star" id="star1"/>
  <use transform="scale(26.25) " xlink:href="#star" id="star2"/>
  <use transform="scale(21) " xlink:href="#star" id="star3"/>
  <use transform="scale(15) " xlink:href="#star" id="star4"/>
  <use transform="scale(10.5) " xlink:href="#star" id="star5"/>
 </defs>
 <clipPath id="band">
  <circle id="svg_12" r="735"/>
 </clipPath>
 <g>
  <title>background</title>
  <rect fill="none" id="canvas_background" height="402" width="582" y="-1" x="-1"/>
 </g>
 <g>
  <title>Layer 1</title>
  <rect id="svg_13" fill="#009b3a" height="2940" width="4200" y="0" x="0"/>
  <path id="svg_14" fill="#fedf00" d="m357.000015,1470.000012l1743,1113l1743,-1113l-1743,-1113l-1743,1113z"/>
  <circle cx="2100" cy="1470.000016" id="svg_15" fill="#002776" r="735"/>
 </g>
</svg>